<?xml version="1.0" encoding="UTF-8" standalone="no"?>
<!-- Created with Inkscape (http://www.inkscape.org/) -->

<svg
   width="116.08531mm"
   height="122.81104mm"
   viewBox="0 0 116.08531 122.81104"
   version="1.1"
   id="svg1"
   xmlns:xlink="http://www.w3.org/1999/xlink"
   xmlns="http://www.w3.org/2000/svg"
   xmlns:svg="http://www.w3.org/2000/svg">
  <defs
     id="defs1">
    <linearGradient
       id="linearGradient3">
      <stop
         style="stop-color:#600040;stop-opacity:1;"
         offset="0"
         id="stop4" />
      <stop
         style="stop-color:#9e171a;stop-opacity:1;"
         offset="0.27101851"
         id="stop6" />
      <stop
         style="stop-color:#d3a826;stop-opacity:1;"
         offset="1"
         id="stop5" />
    </linearGradient>
    <linearGradient
       id="linearGradient1">
      <stop
         style="stop-color:#310024;stop-opacity:1;"
         offset="0.14814815"
         id="stop1" />
      <stop
         style="stop-color:#31008a;stop-opacity:1;"
         offset="0.40046296"
         id="stop3" />
      <stop
         style="stop-color:#317fc2;stop-opacity:1;"
         offset="0.7800926"
         id="stop2" />
    </linearGradient>
    <linearGradient
       xlink:href="#linearGradient1"
       id="linearGradient2"
       x1="39.773468"
       y1="125.63955"
       x2="174.70589"
       y2="125.63955"
       gradientUnits="userSpaceOnUse"
       gradientTransform="matrix(0.87327819,0,0,1.4820142,15.262306,-288.607)" />
    <linearGradient
       xlink:href="#linearGradient3"
       id="linearGradient5"
       x1="26.021353"
       y1="108.81656"
       x2="179.25819"
       y2="108.81656"
       gradientUnits="userSpaceOnUse"
       gradientTransform="matrix(0.77358491,0,0,1.3058036,29.941667,-244.60142)" />
  </defs>
  <g
     id="layer1"
     style="display:none"
     transform="translate(-51.104631,-66.955259)">
    <rect
       style="fill:url(#linearGradient2);stroke-width:0.279857"
       id="rect1"
       width="117.83355"
       height="153.14642"
       x="49.995609"
       y="-178.98059"
       ry="0"
       transform="rotate(90)" />
  </g>
  <g
     id="layer2"
     style="display:none"
     transform="translate(-51.104631,-66.955259)">
    <rect
       style="fill:url(#linearGradient5);stroke-width:0.239675"
       id="rect3"
       width="118.54172"
       height="153.76253"
       x="50.071392"
       y="-179.38962"
       transform="rotate(90)" />
  </g>
  <g
     id="layer3"
     style="display:none"
     transform="translate(-51.104631,-66.955259)">
    <path
       id="path8"
       style="fill:#ffffff;fill-opacity:1;stroke-width:0.246"
       d="m 114.07339,63.082063 c 0,12.629225 0.11735,13.119519 4.8579,26.43785 2.80361,7.87663 -9.81432,19.225867 -14.45162,19.033807 -4.63605,-0.19201 -20.26351,-9.695442 -15.89632,-16.693434 5.463048,-8.753997 7.353955,-11.154991 7.353955,-29.303907 0,-25.25847 -0.473685,-45.334572 9.330895,-45.471655 10.58899,-0.14805 8.80519,20.73889 8.80519,45.997339 z" />
    <path
       id="circle7"
       style="fill:#ffffff;fill-opacity:1;stroke-width:0.336805"
       d="m 131.68382,113.54772 c 0,14.80668 -12.00319,26.80988 -26.80987,26.80988 -14.806689,0 -26.809881,-12.00319 -26.80988,-26.80988 0,-7.40334 2.269333,-13.06024 6.538223,-18.431762 12.211208,-15.365311 12.605472,-15.737689 20.008817,-15.737688 7.40334,0 7.53476,-0.416147 19.22028,15.212006 4.10873,5.494994 7.85243,11.554104 7.85243,18.957444 z" />
    <path
       id="path9"
       style="fill:#ff3022;fill-opacity:1;stroke-width:0.208935"
       d="m 111.54805,70.180032 c 0,12.557398 0.0851,13.044902 3.52436,26.287489 2.03399,7.831829 -7.12019,19.116529 -10.48451,18.925559 -3.36341,-0.19092 -14.700974,-9.6403 -11.532621,-16.598498 3.963388,-8.704208 5.335222,-11.091547 5.335222,-29.137244 0,-25.114819 -0.343653,-45.076741 6.769459,-45.213045 7.68222,-0.147206 6.38809,20.620942 6.38809,45.735739 z" />
    <path
       id="path10"
       style="fill:#ff3022;fill-opacity:1;stroke-width:0.244617"
       d="m 124.0614,113.50508 c 0,10.76565 -8.7082,19.49294 -19.45029,19.49294 -10.74211,0 -19.450308,-8.72729 -19.450307,-19.49294 0,-5.38283 1.646379,-9.49585 4.743417,-13.40138 8.859111,-11.171817 9.145145,-11.442565 14.5162,-11.442565 5.37105,0 5.46639,-0.302573 13.94412,11.060349 2.98084,3.995306 5.69686,8.400766 5.69686,13.783596 z" />
  </g>
  <g
     id="layer4"
     style="display:none;fill:#a068ff;fill-opacity:1"
     transform="translate(-51.104631,-66.955259)">
    <path
       style="display:inline;fill:#45e1ff;fill-opacity:1;stroke-width:0.223109"
       d="M 87.526368,89.931974 C 81.218159,89.49957 66.499013,88.202362 64.133434,73.284472 c -2.365579,-14.91789 4.507848,-20.073059 7.765443,-24.787099 2.735148,-3.95801 12.486108,-18.66697 13.261912,-21.479983 0.777271,-2.818332 11.44048,18.401308 15.383331,23.915156 3.58321,5.010922 8.53357,8.12806 8.53529,21.054717 0.002,16.065026 -15.10728,17.722146 -17.717021,17.949211 -4.712162,0.409992 -3.836021,-0.0045 -3.836021,-0.0045 z"
       id="path12" />
  </g>
  <g
     id="layer5"
     style="display:none"
     transform="translate(-51.104631,-66.955259)">
    <path
       style="fill:#45e1ff;fill-opacity:1;stroke-width:0.246"
       d="m 49.414286,81.218162 c 3.154103,-3.942632 9.083786,-5.328835 19.713146,-7.885262 20.764513,-4.993995 36.279688,3.152239 43.368918,6.045371 7.95285,3.245579 9.46231,6.833891 23.91861,0.788521 14.45631,-6.045365 -0.62229,6.742303 -6.04536,8.41094 -10.25084,3.154104 -19.91842,1.920119 -27.5984,-2.10273 -11.039362,-5.782527 -15.194881,-9.199476 -26.284194,-9.199474 -12.879255,3e-6 -15.244834,0.525686 -27.07272,3.942634 z"
       id="path17" />
    <path
       style="fill:#45e1ff;fill-opacity:1;stroke-width:0.246"
       d="m 61.505015,81.218161 c 8.936624,-1.839894 19.975988,-0.788527 28.386928,4.468312 8.41094,5.25684 19.713147,12.353571 30.489657,8.410943 10.77653,-3.94263 11.56505,-3.416946 13.66779,-4.205473 2.10273,-0.788524 -5.25684,5.782522 -9.19947,8.410943 -3.74351,2.495674 -10.51368,6.045364 -19.97599,2.628424 C 95.411623,97.514361 96.200153,94.885942 86.475,89.366261 76.749848,83.846579 73.858585,82.53237 61.505015,81.218161 Z"
       id="path18" />
    <path
       style="fill:#45e1ff;fill-opacity:1;stroke-width:0.173433"
       d="m 67.390851,85.641234 c 6.593898,0.462951 14.150369,3.232769 19.11825,8.289288 4.967886,5.056501 11.63767,11.872908 19.894539,11.291308 8.25691,-0.58159 8.71682,-0.0858 10.33133,-0.21203 1.61451,-0.12619 -4.45249,2.4847 -7.94243,3.83244 -3.04523,1.176 -8.44508,2.02132 -14.476339,-2.01623 C 88.28495,102.78843 89.303675,101.19872 83.460603,95.721432 77.617529,90.244154 75.822505,88.831834 67.390851,85.641234 Z"
       id="path18-5" />
  </g>
  <g
     id="layer6"
     style="display:none"
     transform="translate(-51.104631,-66.955259)">
    <circle
       style="fill:#ffd800;fill-opacity:1;stroke-width:0.246"
       id="path19"
       cx="105.9253"
       cy="100.9313"
       r="38.900608" />
    <ellipse
       style="fill:#ffd800;fill-opacity:1;stroke-width:0.246"
       id="path20-3-6"
       cx="131.67517"
       cy="110.08498"
       rx="2.8912613"
       ry="13.404939"
       transform="rotate(25)" />
    <ellipse
       style="fill:#ffd800;fill-opacity:1;stroke-width:0.246"
       id="path20-3-60"
       cx="155.98563"
       cy="-80.008415"
       rx="2.8912613"
       ry="13.404939"
       transform="rotate(50)" />
    <ellipse
       style="fill:#ffd800;fill-opacity:1;stroke-width:0.246"
       id="path20-3-60-5"
       cx="136.92656"
       cy="47.102657"
       rx="2.8912613"
       ry="13.404939"
       transform="rotate(50)" />
    <ellipse
       style="fill:#ffd800;fill-opacity:1;stroke-width:0.246"
       id="path20-8"
       cx="102.60599"
       cy="-168.02249"
       rx="2.8912613"
       ry="13.404939"
       transform="rotate(90)" />
    <ellipse
       style="fill:#ffd800;fill-opacity:1;stroke-width:0.246"
       id="path20-8-5"
       cx="103.71494"
       cy="-41.955879"
       rx="2.8912613"
       ry="13.404939"
       transform="rotate(90)" />
    <ellipse
       style="fill:#ffd800;fill-opacity:1;stroke-width:0.246"
       id="path20-8-3"
       cx="45.97229"
       cy="-74.010582"
       rx="2.8912613"
       ry="13.404939"
       transform="rotate(115)" />
    <ellipse
       style="fill:#ffd800;fill-opacity:1;stroke-width:0.246"
       id="path20-8-3-6"
       cx="50.147083"
       cy="-200.73401"
       rx="2.8912613"
       ry="13.404939"
       transform="rotate(115)" />
    <ellipse
       style="fill:#ffd800;fill-opacity:1;stroke-width:0.246"
       id="path20-8-3-4-7"
       cx="-9.2260904"
       cy="-206.11987"
       rx="2.8912613"
       ry="13.404939"
       transform="rotate(140)" />
    <ellipse
       style="fill:#ffd800;fill-opacity:1;stroke-width:0.246"
       id="path20-6"
       cx="105.63144"
       cy="163.71754"
       rx="2.8912613"
       ry="13.404939" />
  </g>
  <g
     id="layer7"
     transform="translate(-76.337458,-68.532311)"
     style="display:none">
    <circle
       style="fill:#ffd800;fill-opacity:1;stroke-width:0.199459"
       id="path19-8"
       cx="91.615395"
       cy="95.368309"
       r="31.541033" />
    <path
       style="fill:#efffff;fill-opacity:1;stroke-width:0.246"
       d="m 84.635105,149.03138 94.360255,1.57705 c 0,0 12.87926,-20.50167 3.67979,-33.90661 -9.19947,-13.40494 -13.40494,-8.41094 -16.55904,-11.56505 -2.99686,-2.99686 -6.07186,-16.877675 -12.35357,-21.290191 -9.97802,-7.008939 -26.54704,-8.1481 -35.22082,-1.839894 -8.67379,6.308206 -9.05187,9.299888 -13.93063,14.456307 -1.63581,1.728916 -18.661775,-5.519679 -22.341563,6.308208 -4.109494,13.20908 -11.680907,7.89049 -12.353571,24.70714 -0.525682,13.1421 14.719149,21.55304 14.719149,21.55304 z"
       id="path21" />
  </g>
  <g
     id="layer8"
     transform="translate(-51.104631,-66.955259)">
    <path
       style="fill:#efffff;fill-opacity:1;stroke-width:0.246"
       d="m 65.837072,138.11613 94.360258,1.57705 c 0,0 12.87926,-20.50167 3.67979,-33.90661 -9.19947,-13.404935 -13.40494,-8.410935 -16.55904,-11.565045 -2.99686,-2.99686 -6.07186,-16.877675 -12.35357,-21.290191 -9.97802,-7.008939 -26.54704,-8.1481 -35.220825,-1.839894 -8.673788,6.308206 -9.051868,9.299888 -13.930628,14.456307 -1.63581,1.728916 -18.661775,-5.519679 -22.341563,6.308208 -4.109494,13.209075 -11.680907,7.890487 -12.353571,24.707135 -0.525682,13.1421 14.719149,21.55304 14.719149,21.55304 z"
       id="path21-9" />
    <path
       style="display:inline;fill:#84d1ff;fill-opacity:1;stroke-width:0.0806094"
       d="m 136.62516,165.79416 c -2.2654,-0.15719 -7.55132,-0.62872 -8.40084,-6.05137 -0.84953,-5.42266 1.61885,-7.29656 2.78871,-9.01012 0.98225,-1.43874 4.48401,-6.78545 4.76261,-7.80797 0.27913,-1.02447 4.10849,6.68887 5.52445,8.69316 1.28679,1.82147 3.06455,2.95455 3.06518,7.65339 7.1e-4,5.83964 -5.42532,6.442 -6.36252,6.52454 -1.69222,0.14903 -1.37759,-0.002 -1.37759,-0.002 z"
       id="path12-0-3" />
    <path
       style="display:inline;fill:#84d1ff;fill-opacity:1;stroke-width:0.0806094"
       d="m 112.78277,189.69894 c -2.2654,-0.15719 -7.55132,-0.62872 -8.40084,-6.05137 -0.84953,-5.42266 1.61885,-7.29656 2.78871,-9.01012 0.98225,-1.43874 4.48401,-6.78545 4.76261,-7.80797 0.27913,-1.02447 4.10849,6.68887 5.52445,8.69316 1.28679,1.82147 3.06455,2.95455 3.06518,7.65339 7.1e-4,5.83964 -5.42532,6.442 -6.36252,6.52454 -1.69222,0.14903 -1.37759,-0.002 -1.37759,-0.002 z"
       id="path12-0-3-9" />
    <path
       style="display:inline;fill:#84d1ff;fill-opacity:1;stroke-width:0.0806094"
       d="m 85.725725,165.45828 c -2.2654,-0.15719 -7.55132,-0.62872 -8.40084,-6.05137 -0.84953,-5.42266 1.61885,-7.29656 2.78871,-9.01012 0.98225,-1.43874 4.48401,-6.78545 4.76261,-7.80797 0.27913,-1.02447 4.10849,6.68887 5.52445,8.69316 1.28679,1.82147 3.06455,2.95455 3.06518,7.65339 7.1e-4,5.83964 -5.42532,6.442 -6.36252,6.52454 -1.69222,0.14903 -1.37759,-0.002 -1.37759,-0.002 z"
       id="path12-0-3-0" />
  </g>
</svg>
